<svg t="1685523498371" class="icon" viewBox="0 0 5054 1024" version="1.1" xmlns="http://www.w3.org/2000/svg" p-id="754" width="190" height="190"><path d="M3562.39338 184.072496h210.20431l164.003263 431.279455 162.121773-431.279455h206.232274V876.98367h-158.149737V390.513825l-194.420694 486.469845h-52.1591l-195.36144-486.469845V876.98367h-142.470649V184.072496z" fill="#1296db" p-id="755"></path><path d="M1927.691638 462.533104h259.541174v125.432706h-259.541174z" fill="#1296db" p-id="756"></path><path d="M4771.146558 881.478342c-66.061225 0-141.843485-2.2996-207.904711-29.476686-60.625808-24.982014-133.063196-79.440714-133.063195-197.556512H4620.104674c0 46.932738 18.501324 54.563227 28.535941 58.63979 31.358177 13.065907 91.252294 12.856852 123.342161 13.065907 53.099846 0 83.621804-13.065907 90.62513-38.779612 12.125162-44.110502-49.441392-68.778934-61.880135-73.169078-18.396797-6.585217-39.197721-11.916107-61.252971-17.665106-15.888143-4.076563-32.403449-8.36218-49.441392-13.484016-172.469971-51.531937-251.806157-131.808869-236.022542-238.531196 8.989344-60.834862 50.27761-111.530581 116.12978-142.888758 97.942038-46.410101 222.747581-39.720357 297.275514-13.797598 101.495965 35.121158 170.797535 117.697689 176.442006 210.20431l-189.403386 7.944072a89.370803 89.370803 0 0 0-60.93939-75.050569c-31.98534-11.184416-92.611148-11.707053-128.254942 5.226362-16.933415 8.048599-21.428087 16.619834-22.995996 27.072559s-5.644472 38.46603 112.784909 73.90077c13.065907 3.867508 26.863505 7.421435 41.810902 11.184416 25.922759 6.689744 52.786264 13.69307 80.590513 23.727687C4985.218376 510.929223 5080.024597 603.226789 5047.51662 721.23806c-27.177086 98.673729-132.749614 160.031228-275.638371 160.031228zM1182.412309 184.490605h159.090483v257.137048h441.000489v435.774126h-159.090482V565.701504h-281.910007v311.700275h-159.090483V184.490605z" fill="#1296db" p-id="757"></path><path d="M1623.412799 184.490605h159.090482v156.999937h-159.090482zM483.020446 259.123065V0a110.903418 110.903418 0 0 1 32.194394 12.334216L863.186072 213.2356a111.530581 111.530581 0 0 1 55.713027 96.583184v401.802769a112.053217 112.053217 0 0 1-5.33089 33.971357L689.148193 616.083641V378.075082zM229.959961 378.075082l205.918693-118.952017V0a110.903418 110.903418 0 0 0-32.194395 12.334216L55.817554 213.2356A111.426054 111.426054 0 0 0 0 309.818784v401.802769a112.053217 112.053217 0 0 0 5.33089 33.971357L229.959961 616.083641z m229.959961 397.93526L253.374066 656.953798 28.95405 786.463067a111.007945 111.007945 0 0 0 26.863504 21.741669l347.866705 200.901384a111.844163 111.844163 0 0 0 111.530581 0l347.971232-200.901384a110.485309 110.485309 0 0 0 26.758978-21.741669L665.62956 656.953798zM3255.187777 184.490605l-154.804864 516.573695-129.195688-516.573695h-210.726946l-125.432706 496.19088-154.073174-496.19088h-147.697011l216.162363 696.465101h180.51857l135.676377-536.851982 134.212995 536.851982h193.898059l208.740928-696.465101h-147.278903z" fill="#1296db" p-id="758"></path><path d="M484.797409 257.973266V0a111.426054 111.426054 0 0 1 32.089867 12.334216L863.395127 212.399382a111.007945 111.007945 0 0 1 55.503972 96.165075V708.694789a112.053217 112.053217 0 0 1-5.33089 33.971358L689.879883 613.574987V376.298118zM232.468615 376.298118l205.291529-118.324852V0a110.79889 110.79889 0 0 0-31.98534 12.334216L59.266954 212.399382a111.007945 111.007945 0 0 0-55.503973 96.165075V708.694789a112.053217 112.053217 0 0 0 5.33089 33.971358L232.468615 613.574987z m228.810162 396.576406L255.987248 654.340617 32.612504 783.32725A109.126454 109.126454 0 0 0 59.266954 804.859864l346.50785 200.169694a111.530581 111.530581 0 0 0 111.112472 0L863.395127 804.859864a109.126454 109.126454 0 0 0 26.65445-21.532614L666.570306 654.340617z" fill="#1296db" p-id="759"></path></svg>